<svg xmlns="http://www.w3.org/2000/svg" viewBox="0 0 32 32"><defs><style>.cls-1{fill:#ffe082;}.cls-2{fill:#ffb74d;}.cls-3{fill:#039be5;}</style></defs><title>wireless connection marketing networking online</title><g id="wireless_connection" data-name="wireless connection"><path class="cls-1" d="M28.16,8.23A19.62,19.62,0,0,0,3.8,7.6,1,1,0,1,1,2.6,6a21.62,21.62,0,0,1,26.84.69,1,1,0,1,1-1.28,1.54Z"/><path class="cls-2" d="M25.22,11.19a15.66,15.66,0,0,0-18.5-.6A1,1,0,0,1,5.59,8.94a17.69,17.69,0,0,1,20.88.68,1,1,0,0,1-1.25,1.57Z"/><path class="cls-2" d="M22.27,14.17a11.34,11.34,0,0,0-12.62-.56,1,1,0,1,1-1-1.7,13.32,13.32,0,0,1,14.85.65,1,1,0,0,1-1.19,1.61Z"/><path class="cls-3" d="M16,15a2.5,2.5,0,0,0-1,4.79V30a1,1,0,0,0,2,0V19.79A2.5,2.5,0,0,0,16,15Z"/></g></svg>